<mxfile host="app.diagrams.net" agent="Mozilla/5.0 (Windows NT 10.0; Win64; x64) AppleWebKit/537.36 (KHTML, like Gecko) Chrome/134.0.0.0 Safari/537.36" version="26.2.1">
  <diagram name="Pagina-1" id="opBmVjl81uKZEpGNowlr">
    <mxGraphModel dx="1428" dy="743" grid="1" gridSize="10" guides="1" tooltips="1" connect="1" arrows="1" fold="1" page="1" pageScale="1" pageWidth="2339" pageHeight="3300" math="0" shadow="0">
      <root>
        <mxCell id="0" />
        <mxCell id="1" parent="0" />
        <mxCell id="U-kLjbXsFDqCu3goTRht-1" value="&lt;font style=&quot;font-size: 25px;&quot; face=&quot;Comic Sans MS&quot;&gt;*&lt;/font&gt;" style="ellipse;whiteSpace=wrap;html=1;aspect=fixed;" vertex="1" parent="1">
          <mxGeometry x="570" y="20" width="50" height="50" as="geometry" />
        </mxCell>
        <mxCell id="U-kLjbXsFDqCu3goTRht-2" value="&lt;font face=&quot;Comic Sans MS&quot;&gt;&lt;span style=&quot;font-size: 25px;&quot;&gt;B&lt;/span&gt;&lt;/font&gt;" style="ellipse;whiteSpace=wrap;html=1;aspect=fixed;" vertex="1" parent="1">
          <mxGeometry x="280" y="120" width="50" height="50" as="geometry" />
        </mxCell>
        <mxCell id="U-kLjbXsFDqCu3goTRht-3" value="&lt;font face=&quot;Comic Sans MS&quot;&gt;&lt;span style=&quot;font-size: 25px;&quot;&gt;R&lt;/span&gt;&lt;/font&gt;" style="ellipse;whiteSpace=wrap;html=1;aspect=fixed;" vertex="1" parent="1">
          <mxGeometry x="1140" y="120" width="50" height="50" as="geometry" />
        </mxCell>
        <mxCell id="U-kLjbXsFDqCu3goTRht-4" value="&lt;font face=&quot;Comic Sans MS&quot;&gt;&lt;span style=&quot;font-size: 25px;&quot;&gt;M&lt;/span&gt;&lt;/font&gt;" style="ellipse;whiteSpace=wrap;html=1;aspect=fixed;" vertex="1" parent="1">
          <mxGeometry x="687.3199999999999" y="120" width="50" height="50" as="geometry" />
        </mxCell>
        <mxCell id="U-kLjbXsFDqCu3goTRht-5" value="&lt;font style=&quot;font-size: 21px;&quot; face=&quot;Comic Sans MS&quot;&gt;ALL&lt;/font&gt;" style="ellipse;whiteSpace=wrap;html=1;aspect=fixed;fillColor=#fff2cc;strokeColor=#d6b656;" vertex="1" parent="1">
          <mxGeometry x="170" y="210" width="50" height="50" as="geometry" />
        </mxCell>
        <mxCell id="U-kLjbXsFDqCu3goTRht-8" value="&lt;font face=&quot;Comic Sans MS&quot;&gt;&lt;span style=&quot;font-size: 25px;&quot;&gt;*&lt;/span&gt;&lt;/font&gt;" style="ellipse;whiteSpace=wrap;html=1;aspect=fixed;" vertex="1" parent="1">
          <mxGeometry x="120" y="300" width="50" height="50" as="geometry" />
        </mxCell>
        <mxCell id="U-kLjbXsFDqCu3goTRht-9" value="&lt;font style=&quot;font-size: 23px;&quot; face=&quot;Comic Sans MS&quot;&gt;ER&lt;/font&gt;" style="ellipse;whiteSpace=wrap;html=1;aspect=fixed;fillColor=#fff2cc;strokeColor=#d6b656;" vertex="1" parent="1">
          <mxGeometry x="210" y="300" width="50" height="50" as="geometry" />
        </mxCell>
        <mxCell id="U-kLjbXsFDqCu3goTRht-10" value="&lt;font face=&quot;Comic Sans MS&quot;&gt;&lt;span style=&quot;font-size: 25px;&quot;&gt;*&lt;/span&gt;&lt;/font&gt;" style="ellipse;whiteSpace=wrap;html=1;aspect=fixed;" vertex="1" parent="1">
          <mxGeometry x="210" y="380" width="50" height="50" as="geometry" />
        </mxCell>
        <mxCell id="U-kLjbXsFDqCu3goTRht-11" value="&lt;font face=&quot;Comic Sans MS&quot;&gt;&lt;span style=&quot;font-size: 25px;&quot;&gt;T&lt;/span&gt;&lt;/font&gt;" style="ellipse;whiteSpace=wrap;html=1;aspect=fixed;" vertex="1" parent="1">
          <mxGeometry x="290" y="300" width="50" height="50" as="geometry" />
        </mxCell>
        <mxCell id="U-kLjbXsFDqCu3goTRht-12" value="&lt;font face=&quot;Comic Sans MS&quot;&gt;&lt;span style=&quot;font-size: 25px;&quot;&gt;*&lt;/span&gt;&lt;/font&gt;" style="ellipse;whiteSpace=wrap;html=1;aspect=fixed;" vertex="1" parent="1">
          <mxGeometry x="290" y="380" width="50" height="50" as="geometry" />
        </mxCell>
        <mxCell id="U-kLjbXsFDqCu3goTRht-13" value="&lt;font face=&quot;Comic Sans MS&quot;&gt;&lt;span style=&quot;font-size: 25px;&quot;&gt;E&lt;/span&gt;&lt;/font&gt;" style="ellipse;whiteSpace=wrap;html=1;aspect=fixed;" vertex="1" parent="1">
          <mxGeometry x="340" y="210" width="50" height="50" as="geometry" />
        </mxCell>
        <mxCell id="U-kLjbXsFDqCu3goTRht-14" value="&lt;font face=&quot;Comic Sans MS&quot;&gt;&lt;span style=&quot;font-size: 25px;&quot;&gt;A&lt;/span&gt;&lt;/font&gt;" style="ellipse;whiteSpace=wrap;html=1;aspect=fixed;" vertex="1" parent="1">
          <mxGeometry x="380" y="300" width="50" height="50" as="geometry" />
        </mxCell>
        <mxCell id="U-kLjbXsFDqCu3goTRht-15" value="&lt;font face=&quot;Comic Sans MS&quot;&gt;&lt;span style=&quot;font-size: 25px;&quot;&gt;R&lt;/span&gt;&lt;/font&gt;" style="ellipse;whiteSpace=wrap;html=1;aspect=fixed;" vertex="1" parent="1">
          <mxGeometry x="380" y="380" width="50" height="50" as="geometry" />
        </mxCell>
        <mxCell id="U-kLjbXsFDqCu3goTRht-16" value="&lt;font face=&quot;Comic Sans MS&quot;&gt;&lt;span style=&quot;font-size: 25px;&quot;&gt;*&lt;/span&gt;&lt;/font&gt;" style="ellipse;whiteSpace=wrap;html=1;aspect=fixed;" vertex="1" parent="1">
          <mxGeometry x="380" y="460" width="50" height="50" as="geometry" />
        </mxCell>
        <mxCell id="U-kLjbXsFDqCu3goTRht-17" value="&lt;font face=&quot;Comic Sans MS&quot;&gt;&lt;span style=&quot;font-size: 25px;&quot;&gt;M&lt;/span&gt;&lt;/font&gt;" style="ellipse;whiteSpace=wrap;html=1;aspect=fixed;" vertex="1" parent="1">
          <mxGeometry x="470" y="380" width="50" height="50" as="geometry" />
        </mxCell>
        <mxCell id="U-kLjbXsFDqCu3goTRht-18" value="&lt;font face=&quot;Comic Sans MS&quot;&gt;&lt;span style=&quot;font-size: 25px;&quot;&gt;*&lt;/span&gt;&lt;/font&gt;" style="ellipse;whiteSpace=wrap;html=1;aspect=fixed;" vertex="1" parent="1">
          <mxGeometry x="470" y="460" width="50" height="50" as="geometry" />
        </mxCell>
        <mxCell id="U-kLjbXsFDqCu3goTRht-19" value="&lt;font style=&quot;font-size: 16px;&quot; face=&quot;Comic Sans MS&quot;&gt;LEND&lt;/font&gt;" style="ellipse;whiteSpace=wrap;html=1;aspect=fixed;fillColor=#fff2cc;strokeColor=#d6b656;" vertex="1" parent="1">
          <mxGeometry x="510" y="210" width="50" height="50" as="geometry" />
        </mxCell>
        <mxCell id="U-kLjbXsFDqCu3goTRht-23" value="&lt;font face=&quot;Comic Sans MS&quot;&gt;&lt;span style=&quot;font-size: 25px;&quot;&gt;*&lt;/span&gt;&lt;/font&gt;" style="ellipse;whiteSpace=wrap;html=1;aspect=fixed;" vertex="1" parent="1">
          <mxGeometry x="510" y="300" width="50" height="50" as="geometry" />
        </mxCell>
        <mxCell id="U-kLjbXsFDqCu3goTRht-24" value="&lt;font face=&quot;Comic Sans MS&quot;&gt;&lt;span style=&quot;font-size: 25px;&quot;&gt;E&lt;/span&gt;&lt;/font&gt;" style="ellipse;whiteSpace=wrap;html=1;aspect=fixed;" vertex="1" parent="1">
          <mxGeometry x="647.3199999999999" y="210" width="50" height="50" as="geometry" />
        </mxCell>
        <mxCell id="U-kLjbXsFDqCu3goTRht-25" value="&lt;font style=&quot;font-size: 23px;&quot; face=&quot;Comic Sans MS&quot;&gt;LT&lt;/font&gt;" style="ellipse;whiteSpace=wrap;html=1;aspect=fixed;fillColor=#fff2cc;strokeColor=#d6b656;" vertex="1" parent="1">
          <mxGeometry x="617.3199999999999" y="300" width="50" height="50" as="geometry" />
        </mxCell>
        <mxCell id="U-kLjbXsFDqCu3goTRht-27" value="&lt;font face=&quot;Comic Sans MS&quot;&gt;&lt;span style=&quot;font-size: 25px;&quot;&gt;*&lt;/span&gt;&lt;/font&gt;" style="ellipse;whiteSpace=wrap;html=1;aspect=fixed;" vertex="1" parent="1">
          <mxGeometry x="617.3199999999999" y="380" width="50" height="50" as="geometry" />
        </mxCell>
        <mxCell id="U-kLjbXsFDqCu3goTRht-28" value="&lt;font face=&quot;Comic Sans MS&quot;&gt;&lt;span style=&quot;font-size: 25px;&quot;&gt;N&lt;/span&gt;&lt;/font&gt;" style="ellipse;whiteSpace=wrap;html=1;aspect=fixed;" vertex="1" parent="1">
          <mxGeometry x="717.3199999999999" y="300" width="50" height="50" as="geometry" />
        </mxCell>
        <mxCell id="U-kLjbXsFDqCu3goTRht-29" value="&lt;font face=&quot;Comic Sans MS&quot;&gt;&lt;span style=&quot;font-size: 25px;&quot;&gt;*&lt;/span&gt;&lt;/font&gt;" style="ellipse;whiteSpace=wrap;html=1;aspect=fixed;" vertex="1" parent="1">
          <mxGeometry x="717.3199999999999" y="380" width="50" height="50" as="geometry" />
        </mxCell>
        <mxCell id="U-kLjbXsFDqCu3goTRht-30" value="&lt;font style=&quot;font-size: 16px;&quot; face=&quot;Comic Sans MS&quot;&gt;ONEY&lt;/font&gt;" style="ellipse;whiteSpace=wrap;html=1;aspect=fixed;fillColor=#fff2cc;strokeColor=#d6b656;" vertex="1" parent="1">
          <mxGeometry x="807.3199999999999" y="210" width="50" height="50" as="geometry" />
        </mxCell>
        <mxCell id="U-kLjbXsFDqCu3goTRht-34" value="&lt;font face=&quot;Comic Sans MS&quot;&gt;&lt;span style=&quot;font-size: 25px;&quot;&gt;*&lt;/span&gt;&lt;/font&gt;" style="ellipse;whiteSpace=wrap;html=1;aspect=fixed;" vertex="1" parent="1">
          <mxGeometry x="807.3199999999999" y="300" width="50" height="50" as="geometry" />
        </mxCell>
        <mxCell id="U-kLjbXsFDqCu3goTRht-35" value="&lt;font face=&quot;Comic Sans MS&quot;&gt;&lt;span style=&quot;font-size: 25px;&quot;&gt;A&lt;/span&gt;&lt;/font&gt;" style="ellipse;whiteSpace=wrap;html=1;aspect=fixed;" vertex="1" parent="1">
          <mxGeometry x="1070" y="210" width="50" height="50" as="geometry" />
        </mxCell>
        <mxCell id="U-kLjbXsFDqCu3goTRht-36" value="&lt;font style=&quot;font-size: 23px;&quot; face=&quot;Comic Sans MS&quot;&gt;IN&lt;/font&gt;" style="ellipse;whiteSpace=wrap;html=1;aspect=fixed;fillColor=#fff2cc;strokeColor=#d6b656;" vertex="1" parent="1">
          <mxGeometry x="1040" y="300" width="50" height="50" as="geometry" />
        </mxCell>
        <mxCell id="U-kLjbXsFDqCu3goTRht-38" value="&lt;font face=&quot;Comic Sans MS&quot;&gt;&lt;span style=&quot;font-size: 25px;&quot;&gt;*&lt;/span&gt;&lt;/font&gt;" style="ellipse;whiteSpace=wrap;html=1;aspect=fixed;" vertex="1" parent="1">
          <mxGeometry x="1040" y="380" width="50" height="50" as="geometry" />
        </mxCell>
        <mxCell id="U-kLjbXsFDqCu3goTRht-39" value="&lt;font face=&quot;Comic Sans MS&quot;&gt;&lt;span style=&quot;font-size: 25px;&quot;&gt;T&lt;/span&gt;&lt;/font&gt;" style="ellipse;whiteSpace=wrap;html=1;aspect=fixed;" vertex="1" parent="1">
          <mxGeometry x="1145" y="300" width="50" height="50" as="geometry" />
        </mxCell>
        <mxCell id="U-kLjbXsFDqCu3goTRht-40" value="&lt;font face=&quot;Comic Sans MS&quot;&gt;&lt;span style=&quot;font-size: 25px;&quot;&gt;*&lt;/span&gt;&lt;/font&gt;" style="ellipse;whiteSpace=wrap;html=1;aspect=fixed;" vertex="1" parent="1">
          <mxGeometry x="1145" y="380" width="50" height="50" as="geometry" />
        </mxCell>
        <mxCell id="U-kLjbXsFDqCu3goTRht-49" value="" style="endArrow=none;html=1;rounded=0;entryX=0;entryY=0.5;entryDx=0;entryDy=0;exitX=1;exitY=0;exitDx=0;exitDy=0;" edge="1" parent="1" source="U-kLjbXsFDqCu3goTRht-2" target="U-kLjbXsFDqCu3goTRht-1">
          <mxGeometry width="50" height="50" relative="1" as="geometry">
            <mxPoint x="370" y="130" as="sourcePoint" />
            <mxPoint x="510" y="90" as="targetPoint" />
          </mxGeometry>
        </mxCell>
        <mxCell id="U-kLjbXsFDqCu3goTRht-50" value="" style="endArrow=none;html=1;rounded=0;entryX=0;entryY=1;entryDx=0;entryDy=0;exitX=1;exitY=0;exitDx=0;exitDy=0;" edge="1" parent="1" source="U-kLjbXsFDqCu3goTRht-5" target="U-kLjbXsFDqCu3goTRht-2">
          <mxGeometry width="50" height="50" relative="1" as="geometry">
            <mxPoint x="230" y="220" as="sourcePoint" />
            <mxPoint x="280" y="170" as="targetPoint" />
          </mxGeometry>
        </mxCell>
        <mxCell id="U-kLjbXsFDqCu3goTRht-51" value="" style="endArrow=none;html=1;rounded=0;entryX=1;entryY=1;entryDx=0;entryDy=0;exitX=0.5;exitY=0;exitDx=0;exitDy=0;" edge="1" parent="1" source="U-kLjbXsFDqCu3goTRht-13" target="U-kLjbXsFDqCu3goTRht-2">
          <mxGeometry width="50" height="50" relative="1" as="geometry">
            <mxPoint x="223" y="227" as="sourcePoint" />
            <mxPoint x="297" y="173" as="targetPoint" />
          </mxGeometry>
        </mxCell>
        <mxCell id="U-kLjbXsFDqCu3goTRht-52" value="" style="endArrow=none;html=1;rounded=0;exitX=0;exitY=0;exitDx=0;exitDy=0;entryX=0.98;entryY=0.68;entryDx=0;entryDy=0;entryPerimeter=0;" edge="1" parent="1" source="U-kLjbXsFDqCu3goTRht-19" target="U-kLjbXsFDqCu3goTRht-2">
          <mxGeometry width="50" height="50" relative="1" as="geometry">
            <mxPoint x="233" y="237" as="sourcePoint" />
            <mxPoint x="330" y="145" as="targetPoint" />
          </mxGeometry>
        </mxCell>
        <mxCell id="U-kLjbXsFDqCu3goTRht-55" value="" style="endArrow=none;html=1;rounded=0;entryX=0.5;entryY=0;entryDx=0;entryDy=0;exitX=0;exitY=1;exitDx=0;exitDy=0;" edge="1" parent="1" source="U-kLjbXsFDqCu3goTRht-5" target="U-kLjbXsFDqCu3goTRht-8">
          <mxGeometry width="50" height="50" relative="1" as="geometry">
            <mxPoint x="195" y="430" as="sourcePoint" />
            <mxPoint x="337" y="213" as="targetPoint" />
          </mxGeometry>
        </mxCell>
        <mxCell id="U-kLjbXsFDqCu3goTRht-56" value="" style="endArrow=none;html=1;rounded=0;entryX=0.5;entryY=0;entryDx=0;entryDy=0;exitX=1;exitY=1;exitDx=0;exitDy=0;" edge="1" parent="1" source="U-kLjbXsFDqCu3goTRht-5" target="U-kLjbXsFDqCu3goTRht-9">
          <mxGeometry width="50" height="50" relative="1" as="geometry">
            <mxPoint x="212.67766952966372" y="422.6776695296637" as="sourcePoint" />
            <mxPoint x="347" y="223" as="targetPoint" />
          </mxGeometry>
        </mxCell>
        <mxCell id="U-kLjbXsFDqCu3goTRht-57" value="" style="endArrow=none;html=1;rounded=0;entryX=0.5;entryY=0;entryDx=0;entryDy=0;exitX=0.5;exitY=1;exitDx=0;exitDy=0;" edge="1" parent="1" source="U-kLjbXsFDqCu3goTRht-9" target="U-kLjbXsFDqCu3goTRht-10">
          <mxGeometry width="50" height="50" relative="1" as="geometry">
            <mxPoint x="283" y="287" as="sourcePoint" />
            <mxPoint x="357" y="233" as="targetPoint" />
          </mxGeometry>
        </mxCell>
        <mxCell id="U-kLjbXsFDqCu3goTRht-58" value="" style="endArrow=none;html=1;rounded=0;entryX=0;entryY=1;entryDx=0;entryDy=0;exitX=0.5;exitY=0;exitDx=0;exitDy=0;" edge="1" parent="1" source="U-kLjbXsFDqCu3goTRht-11" target="U-kLjbXsFDqCu3goTRht-13">
          <mxGeometry width="50" height="50" relative="1" as="geometry">
            <mxPoint x="293" y="297" as="sourcePoint" />
            <mxPoint x="367" y="243" as="targetPoint" />
          </mxGeometry>
        </mxCell>
        <mxCell id="U-kLjbXsFDqCu3goTRht-59" value="" style="endArrow=none;html=1;rounded=0;entryX=1;entryY=1;entryDx=0;entryDy=0;exitX=0.5;exitY=0;exitDx=0;exitDy=0;" edge="1" parent="1" source="U-kLjbXsFDqCu3goTRht-14" target="U-kLjbXsFDqCu3goTRht-13">
          <mxGeometry width="50" height="50" relative="1" as="geometry">
            <mxPoint x="303" y="307" as="sourcePoint" />
            <mxPoint x="377" y="253" as="targetPoint" />
          </mxGeometry>
        </mxCell>
        <mxCell id="U-kLjbXsFDqCu3goTRht-60" value="" style="endArrow=none;html=1;rounded=0;entryX=0.5;entryY=1;entryDx=0;entryDy=0;exitX=0.5;exitY=0;exitDx=0;exitDy=0;" edge="1" parent="1" source="U-kLjbXsFDqCu3goTRht-12" target="U-kLjbXsFDqCu3goTRht-11">
          <mxGeometry width="50" height="50" relative="1" as="geometry">
            <mxPoint x="313" y="317" as="sourcePoint" />
            <mxPoint x="387" y="263" as="targetPoint" />
          </mxGeometry>
        </mxCell>
        <mxCell id="U-kLjbXsFDqCu3goTRht-61" value="" style="endArrow=none;html=1;rounded=0;entryX=0.5;entryY=1;entryDx=0;entryDy=0;exitX=0.5;exitY=0;exitDx=0;exitDy=0;" edge="1" parent="1" source="U-kLjbXsFDqCu3goTRht-15" target="U-kLjbXsFDqCu3goTRht-14">
          <mxGeometry width="50" height="50" relative="1" as="geometry">
            <mxPoint x="323" y="327" as="sourcePoint" />
            <mxPoint x="397" y="273" as="targetPoint" />
          </mxGeometry>
        </mxCell>
        <mxCell id="U-kLjbXsFDqCu3goTRht-62" value="" style="endArrow=none;html=1;rounded=0;entryX=0.5;entryY=1;entryDx=0;entryDy=0;exitX=0.5;exitY=0;exitDx=0;exitDy=0;" edge="1" parent="1" source="U-kLjbXsFDqCu3goTRht-16" target="U-kLjbXsFDqCu3goTRht-15">
          <mxGeometry width="50" height="50" relative="1" as="geometry">
            <mxPoint x="340" y="480" as="sourcePoint" />
            <mxPoint x="390" y="430" as="targetPoint" />
          </mxGeometry>
        </mxCell>
        <mxCell id="U-kLjbXsFDqCu3goTRht-63" value="" style="endArrow=none;html=1;rounded=0;entryX=1;entryY=1;entryDx=0;entryDy=0;exitX=0;exitY=0;exitDx=0;exitDy=0;" edge="1" parent="1" source="U-kLjbXsFDqCu3goTRht-17" target="U-kLjbXsFDqCu3goTRht-14">
          <mxGeometry width="50" height="50" relative="1" as="geometry">
            <mxPoint x="430" y="370" as="sourcePoint" />
            <mxPoint x="480" y="320" as="targetPoint" />
          </mxGeometry>
        </mxCell>
        <mxCell id="U-kLjbXsFDqCu3goTRht-64" value="" style="endArrow=none;html=1;rounded=0;entryX=0.5;entryY=1;entryDx=0;entryDy=0;exitX=0.5;exitY=0;exitDx=0;exitDy=0;" edge="1" parent="1" source="U-kLjbXsFDqCu3goTRht-18" target="U-kLjbXsFDqCu3goTRht-17">
          <mxGeometry width="50" height="50" relative="1" as="geometry">
            <mxPoint x="333" y="337" as="sourcePoint" />
            <mxPoint x="407" y="283" as="targetPoint" />
          </mxGeometry>
        </mxCell>
        <mxCell id="U-kLjbXsFDqCu3goTRht-65" value="" style="endArrow=none;html=1;rounded=0;exitX=0.5;exitY=0;exitDx=0;exitDy=0;entryX=0.5;entryY=1;entryDx=0;entryDy=0;" edge="1" parent="1" source="U-kLjbXsFDqCu3goTRht-23" target="U-kLjbXsFDqCu3goTRht-19">
          <mxGeometry width="50" height="50" relative="1" as="geometry">
            <mxPoint x="565" y="300" as="sourcePoint" />
            <mxPoint x="520" y="270" as="targetPoint" />
          </mxGeometry>
        </mxCell>
        <mxCell id="U-kLjbXsFDqCu3goTRht-69" value="" style="endArrow=none;html=1;rounded=0;entryX=1;entryY=1;entryDx=0;entryDy=0;exitX=0;exitY=0;exitDx=0;exitDy=0;" edge="1" parent="1" source="U-kLjbXsFDqCu3goTRht-4" target="U-kLjbXsFDqCu3goTRht-1">
          <mxGeometry width="50" height="50" relative="1" as="geometry">
            <mxPoint x="537.3199999999999" y="120" as="sourcePoint" />
            <mxPoint x="539.9976695296637" y="62.67766952966371" as="targetPoint" />
          </mxGeometry>
        </mxCell>
        <mxCell id="U-kLjbXsFDqCu3goTRht-70" value="" style="endArrow=none;html=1;rounded=0;entryX=0;entryY=1;entryDx=0;entryDy=0;exitX=0.5;exitY=0;exitDx=0;exitDy=0;" edge="1" parent="1" source="U-kLjbXsFDqCu3goTRht-24" target="U-kLjbXsFDqCu3goTRht-4">
          <mxGeometry width="50" height="50" relative="1" as="geometry">
            <mxPoint x="310.32" y="387" as="sourcePoint" />
            <mxPoint x="384.32" y="333" as="targetPoint" />
          </mxGeometry>
        </mxCell>
        <mxCell id="U-kLjbXsFDqCu3goTRht-71" value="" style="endArrow=none;html=1;rounded=0;entryX=0;entryY=1;entryDx=0;entryDy=0;exitX=0.5;exitY=0;exitDx=0;exitDy=0;" edge="1" parent="1" source="U-kLjbXsFDqCu3goTRht-25" target="U-kLjbXsFDqCu3goTRht-24">
          <mxGeometry width="50" height="50" relative="1" as="geometry">
            <mxPoint x="320.32" y="397" as="sourcePoint" />
            <mxPoint x="394.32" y="343" as="targetPoint" />
          </mxGeometry>
        </mxCell>
        <mxCell id="U-kLjbXsFDqCu3goTRht-72" value="" style="endArrow=none;html=1;rounded=0;entryX=0.5;entryY=1;entryDx=0;entryDy=0;exitX=0.5;exitY=0;exitDx=0;exitDy=0;" edge="1" parent="1" source="U-kLjbXsFDqCu3goTRht-27" target="U-kLjbXsFDqCu3goTRht-25">
          <mxGeometry width="50" height="50" relative="1" as="geometry">
            <mxPoint x="642" y="390" as="sourcePoint" />
            <mxPoint x="404.32" y="353" as="targetPoint" />
          </mxGeometry>
        </mxCell>
        <mxCell id="U-kLjbXsFDqCu3goTRht-74" value="" style="endArrow=none;html=1;rounded=0;entryX=1;entryY=1;entryDx=0;entryDy=0;exitX=0.5;exitY=0;exitDx=0;exitDy=0;" edge="1" parent="1" source="U-kLjbXsFDqCu3goTRht-28" target="U-kLjbXsFDqCu3goTRht-24">
          <mxGeometry width="50" height="50" relative="1" as="geometry">
            <mxPoint x="350.32" y="427" as="sourcePoint" />
            <mxPoint x="424.32" y="373" as="targetPoint" />
          </mxGeometry>
        </mxCell>
        <mxCell id="U-kLjbXsFDqCu3goTRht-75" value="" style="endArrow=none;html=1;rounded=0;entryX=0.5;entryY=1;entryDx=0;entryDy=0;exitX=0.5;exitY=0;exitDx=0;exitDy=0;" edge="1" parent="1" source="U-kLjbXsFDqCu3goTRht-29" target="U-kLjbXsFDqCu3goTRht-28">
          <mxGeometry width="50" height="50" relative="1" as="geometry">
            <mxPoint x="360.32" y="437" as="sourcePoint" />
            <mxPoint x="434.32" y="383" as="targetPoint" />
          </mxGeometry>
        </mxCell>
        <mxCell id="U-kLjbXsFDqCu3goTRht-76" value="" style="endArrow=none;html=1;rounded=0;entryX=1;entryY=1;entryDx=0;entryDy=0;exitX=0.5;exitY=0;exitDx=0;exitDy=0;" edge="1" parent="1" source="U-kLjbXsFDqCu3goTRht-30" target="U-kLjbXsFDqCu3goTRht-4">
          <mxGeometry width="50" height="50" relative="1" as="geometry">
            <mxPoint x="370.32" y="447" as="sourcePoint" />
            <mxPoint x="444.32" y="393" as="targetPoint" />
          </mxGeometry>
        </mxCell>
        <mxCell id="U-kLjbXsFDqCu3goTRht-81" value="" style="endArrow=none;html=1;rounded=0;entryX=0;entryY=1;entryDx=0;entryDy=0;exitX=0.5;exitY=0;exitDx=0;exitDy=0;" edge="1" parent="1" source="U-kLjbXsFDqCu3goTRht-35" target="U-kLjbXsFDqCu3goTRht-3">
          <mxGeometry width="50" height="50" relative="1" as="geometry">
            <mxPoint x="493" y="497" as="sourcePoint" />
            <mxPoint x="567" y="443" as="targetPoint" />
          </mxGeometry>
        </mxCell>
        <mxCell id="U-kLjbXsFDqCu3goTRht-82" value="" style="endArrow=none;html=1;rounded=0;entryX=0;entryY=1;entryDx=0;entryDy=0;exitX=0.5;exitY=0;exitDx=0;exitDy=0;" edge="1" parent="1" source="U-kLjbXsFDqCu3goTRht-36" target="U-kLjbXsFDqCu3goTRht-35">
          <mxGeometry width="50" height="50" relative="1" as="geometry">
            <mxPoint x="503" y="507" as="sourcePoint" />
            <mxPoint x="577" y="453" as="targetPoint" />
          </mxGeometry>
        </mxCell>
        <mxCell id="U-kLjbXsFDqCu3goTRht-85" value="" style="endArrow=none;html=1;rounded=0;entryX=1;entryY=1;entryDx=0;entryDy=0;exitX=0.5;exitY=0;exitDx=0;exitDy=0;" edge="1" parent="1" source="U-kLjbXsFDqCu3goTRht-39" target="U-kLjbXsFDqCu3goTRht-35">
          <mxGeometry width="50" height="50" relative="1" as="geometry">
            <mxPoint x="533" y="537" as="sourcePoint" />
            <mxPoint x="607" y="483" as="targetPoint" />
          </mxGeometry>
        </mxCell>
        <mxCell id="U-kLjbXsFDqCu3goTRht-86" value="" style="endArrow=none;html=1;rounded=0;entryX=0.5;entryY=1;entryDx=0;entryDy=0;exitX=0.5;exitY=0;exitDx=0;exitDy=0;" edge="1" parent="1" source="U-kLjbXsFDqCu3goTRht-40" target="U-kLjbXsFDqCu3goTRht-39">
          <mxGeometry width="50" height="50" relative="1" as="geometry">
            <mxPoint x="543" y="547" as="sourcePoint" />
            <mxPoint x="617" y="493" as="targetPoint" />
          </mxGeometry>
        </mxCell>
        <mxCell id="U-kLjbXsFDqCu3goTRht-87" value="" style="endArrow=none;html=1;rounded=0;entryX=1;entryY=1;entryDx=0;entryDy=0;exitX=0.5;exitY=0;exitDx=0;exitDy=0;" edge="1" parent="1" source="U-kLjbXsFDqCu3goTRht-98" target="U-kLjbXsFDqCu3goTRht-3">
          <mxGeometry width="50" height="50" relative="1" as="geometry">
            <mxPoint x="1241.7157287525379" y="221.71572875253787" as="sourcePoint" />
            <mxPoint x="627" y="503" as="targetPoint" />
          </mxGeometry>
        </mxCell>
        <mxCell id="U-kLjbXsFDqCu3goTRht-95" value="" style="endArrow=none;html=1;rounded=0;exitX=0;exitY=0.5;exitDx=0;exitDy=0;entryX=1;entryY=0.5;entryDx=0;entryDy=0;" edge="1" parent="1" source="U-kLjbXsFDqCu3goTRht-3" target="U-kLjbXsFDqCu3goTRht-1">
          <mxGeometry width="50" height="50" relative="1" as="geometry">
            <mxPoint x="700" y="410" as="sourcePoint" />
            <mxPoint x="620" y="60" as="targetPoint" />
          </mxGeometry>
        </mxCell>
        <mxCell id="U-kLjbXsFDqCu3goTRht-96" value="" style="endArrow=none;html=1;rounded=0;entryX=0.5;entryY=1;entryDx=0;entryDy=0;exitX=0.5;exitY=0;exitDx=0;exitDy=0;" edge="1" parent="1" source="U-kLjbXsFDqCu3goTRht-34" target="U-kLjbXsFDqCu3goTRht-30">
          <mxGeometry width="50" height="50" relative="1" as="geometry">
            <mxPoint x="700" y="390" as="sourcePoint" />
            <mxPoint x="750" y="340" as="targetPoint" />
          </mxGeometry>
        </mxCell>
        <mxCell id="U-kLjbXsFDqCu3goTRht-97" value="" style="endArrow=none;html=1;rounded=0;entryX=0.5;entryY=1;entryDx=0;entryDy=0;exitX=0.5;exitY=0;exitDx=0;exitDy=0;" edge="1" parent="1" source="U-kLjbXsFDqCu3goTRht-38" target="U-kLjbXsFDqCu3goTRht-36">
          <mxGeometry width="50" height="50" relative="1" as="geometry">
            <mxPoint x="700" y="380" as="sourcePoint" />
            <mxPoint x="750" y="330" as="targetPoint" />
          </mxGeometry>
        </mxCell>
        <mxCell id="U-kLjbXsFDqCu3goTRht-98" value="&lt;font face=&quot;Comic Sans MS&quot; style=&quot;font-size: 15px;&quot;&gt;ESEARCH&lt;/font&gt;" style="ellipse;whiteSpace=wrap;html=1;fillColor=#fff2cc;strokeColor=#d6b656;" vertex="1" parent="1">
          <mxGeometry x="1210" y="210" width="80" height="50" as="geometry" />
        </mxCell>
        <mxCell id="U-kLjbXsFDqCu3goTRht-99" value="&lt;font face=&quot;Comic Sans MS&quot;&gt;&lt;span style=&quot;font-size: 25px;&quot;&gt;*&lt;/span&gt;&lt;/font&gt;" style="ellipse;whiteSpace=wrap;html=1;aspect=fixed;" vertex="1" parent="1">
          <mxGeometry x="1225" y="300" width="50" height="50" as="geometry" />
        </mxCell>
        <mxCell id="U-kLjbXsFDqCu3goTRht-100" value="" style="endArrow=none;html=1;rounded=0;entryX=0.5;entryY=1;entryDx=0;entryDy=0;exitX=0.5;exitY=0;exitDx=0;exitDy=0;" edge="1" parent="1" source="U-kLjbXsFDqCu3goTRht-99" target="U-kLjbXsFDqCu3goTRht-98">
          <mxGeometry width="50" height="50" relative="1" as="geometry">
            <mxPoint x="623" y="467" as="sourcePoint" />
            <mxPoint x="1250" y="270" as="targetPoint" />
          </mxGeometry>
        </mxCell>
      </root>
    </mxGraphModel>
  </diagram>
</mxfile>
